<?xml version="1.0" standalone="no"?>
<!DOCTYPE svg PUBLIC "-//W3C//DTD SVG 20010904//EN"
 "http://www.w3.org/TR/2001/REC-SVG-20010904/DTD/svg10.dtd">
<svg version="1.0" xmlns="http://www.w3.org/2000/svg"
 width="300.000000pt" height="300.000000pt" viewBox="0 0 300.000000 300.000000"
 preserveAspectRatio="xMidYMid meet">
<metadata>
Created by potrace 1.14, written by Peter Selinger 2001-2017
</metadata>
<g transform="translate(0.000000,300.000000) scale(0.100000,-0.100000)"
fill="#000000" stroke="none">
<path d="M0 1500 l0 -1500 1500 0 1500 0 0 386 c0 364 -1 386 -17 379 -10 -4
-27 -9 -38 -11 l-20 -4 20 9 c16 8 11 10 -25 9 -36 0 -40 -2 -20 -8 l25 -7
-30 -12 c-16 -6 -43 -17 -58 -23 -21 -8 -31 -8 -40 1 -18 18 -46 13 -81 -14
-19 -14 -40 -23 -48 -20 -8 3 -21 -1 -28 -10 -7 -8 -27 -15 -44 -15 -17 0 -46
-9 -64 -20 -18 -11 -42 -20 -53 -20 -11 0 -18 -4 -15 -9 3 -5 -10 -9 -29 -8
-19 1 -42 -6 -53 -16 -10 -9 -30 -17 -45 -17 -19 0 -25 -4 -21 -14 4 -11 -3
-14 -28 -13 -21 1 -32 -2 -31 -10 2 -6 -5 -12 -15 -12 -59 -3 -123 -13 -165
-27 -28 -9 -82 -16 -125 -16 -42 0 -87 -4 -99 -9 -18 -7 -21 -5 -16 9 5 16 5
16 -8 1 -8 -9 -30 -19 -49 -22 -19 -4 -46 -9 -60 -12 -14 -3 -2 3 25 14 60 23
40 27 -30 5 -27 -8 -79 -18 -115 -20 -91 -7 -90 -6 -84 -16 3 -4 -7 -8 -23 -9
-24 0 -25 -2 -8 -8 18 -7 18 -8 -5 -13 -14 -3 -34 -9 -45 -12 -13 -5 -12 -2 5
8 14 8 20 15 14 16 -17 0 -437 -147 -497 -174 -29 -14 -90 -34 -137 -45 -47
-12 -94 -26 -105 -31 -36 -16 -89 -18 -122 -5 -17 7 -33 11 -36 9 -2 -3 -10 3
-17 12 -12 13 -11 17 1 25 8 5 24 7 37 4 12 -3 22 -1 22 5 0 5 -9 10 -20 10
-34 0 -22 15 32 45 29 15 60 33 68 40 8 7 26 16 40 20 14 4 40 23 59 41 19 18
48 39 65 45 17 7 38 21 47 31 9 10 21 18 28 18 6 0 11 5 11 10 0 6 4 10 9 10
6 0 23 12 38 26 15 15 53 45 83 67 30 22 76 61 101 86 67 66 225 201 236 201
5 0 20 11 33 25 19 20 153 107 234 152 32 18 124 107 102 99 -10 -3 -30 -15
-45 -27 -65 -50 -165 -110 -336 -199 -38 -20 -115 -63 -170 -97 -156 -93 -300
-172 -347 -189 -51 -18 -238 -32 -223 -16 9 9 169 52 194 52 26 0 121 43 121
55 0 19 105 94 142 102 18 3 41 15 52 25 11 10 28 18 37 18 10 0 19 4 21 8 4
10 152 87 187 97 63 19 260 132 283 162 7 10 33 28 58 41 25 12 56 31 69 41
l24 18 -53 7 c-29 4 -66 14 -81 22 -15 7 -44 14 -63 14 -20 0 -53 6 -73 14
-21 8 -81 17 -133 20 -110 8 -160 15 -160 25 0 4 16 14 36 21 20 8 40 22 45
31 5 10 22 27 38 38 l30 21 -2 -32 c-2 -28 1 -33 21 -32 12 0 22 -4 22 -9 0
-5 15 1 33 12 36 22 47 19 47 -13 0 -15 3 -17 12 -8 7 7 32 12 58 12 25 1 70
10 100 21 30 11 67 23 83 26 15 3 27 9 27 14 0 5 6 9 14 9 8 0 17 6 19 13 4 9
7 9 15 -1 7 -10 22 -9 75 9 37 12 67 25 67 30 0 4 9 7 20 6 16 -1 20 -8 20
-33 0 -38 39 -76 97 -94 21 -7 52 -23 70 -36 17 -13 39 -24 47 -24 9 0 16 -4
16 -10 0 -5 -6 -10 -14 -10 -12 0 -26 -26 -30 -55 -1 -5 -5 -15 -9 -22 -20
-33 58 -25 81 8 7 10 20 19 28 19 8 0 14 5 14 10 0 6 9 10 20 10 11 0 20 -4
20 -10 0 -5 -7 -10 -15 -10 -8 0 -15 -7 -15 -15 0 -21 43 -14 52 8 6 13 14 16
28 12 17 -5 20 -2 20 24 0 17 6 40 13 51 10 17 9 22 -3 31 -11 8 -12 12 -3 16
7 2 13 11 13 19 0 8 7 14 16 14 12 0 15 -7 12 -25 -7 -32 0 -31 51 6 l42 30
35 -30 c19 -17 46 -34 59 -37 14 -3 23 -9 20 -13 -6 -10 102 -71 125 -71 24 0
35 -18 14 -22 -23 -4 61 -44 109 -51 l37 -6 0 49 0 48 -60 31 c-37 18 -87 57
-128 98 -62 62 -66 68 -43 70 18 1 21 -1 10 -9 -10 -7 -8 -9 9 -5 12 3 20 2
17 -3 -6 -9 18 -20 44 -20 9 0 25 -17 36 -37 26 -49 43 -62 83 -63 l32 0 0
830 0 830 -1500 0 -1500 0 0 -1500z m1830 680 c-14 -11 -31 -20 -37 -20 -7 0
-13 -5 -13 -11 0 -6 8 -8 19 -4 18 5 39 -21 26 -33 -2 -3 -7 2 -11 11 -4 12
-11 14 -22 8 -10 -4 -29 -6 -44 -4 -25 3 -28 0 -29 -24 0 -23 -2 -24 -8 -9
-12 32 -1 71 24 82 18 9 25 9 28 0 3 -8 10 -8 28 1 23 11 49 21 59 22 3 0 -6
-8 -20 -19z m-147 -32 c-6 -31 -23 -38 -23 -10 0 16 20 46 26 39 1 -1 0 -14
-3 -29z m81 -54 c9 -24 7 -27 -9 -10 -17 17 -19 26 -6 26 5 0 12 -7 15 -16z
m186 -142 c-12 -4 -63 23 -79 42 -7 8 10 2 38 -12 28 -15 46 -28 41 -30z m696
-210 c-6 -6 -56 10 -56 18 0 5 13 3 30 -3 16 -6 28 -13 26 -15z m-186 -97 c14
-8 21 -14 15 -14 -5 0 -21 6 -35 14 -14 8 -20 14 -15 14 6 0 21 -6 35 -14z
m-388 -75 c-7 -19 -28 -28 -128 -56 -266 -76 -324 -89 -324 -74 0 6 8 10 18
11 11 1 8 4 -8 9 -29 9 -21 12 62 29 31 7 62 19 68 27 18 21 47 17 64 -8 14
-20 16 -20 16 -4 0 10 12 35 28 57 27 38 52 57 52 39 0 -16 127 -12 142 4 17
18 22 -1 10 -34z m447 10 c23 -6 41 -13 41 -16 0 -9 -63 7 -90 23 -14 8 -17
12 -8 9 9 -3 35 -10 57 -16z m-387 -72 c-15 -15 -24 -6 -16 16 5 12 10 14 17
7 8 -8 8 -14 -1 -23z m438 -48 c0 -5 -2 -10 -4 -10 -3 0 -8 5 -11 10 -3 6 -1
10 4 10 6 0 11 -4 11 -10z m-1197 -16 c12 -12 -6 -34 -29 -34 -28 0 -31 15 -6
29 20 12 27 13 35 5z m1177 -13 c0 -5 -7 -11 -15 -15 -9 -3 -15 0 -15 9 0 8 7
15 15 15 8 0 15 -4 15 -9z m-105 -131 c-3 -5 -11 -10 -16 -10 -6 0 -7 5 -4 10
3 6 11 10 16 10 6 0 7 -4 4 -10z m-168 -76 c-9 -9 -28 6 -21 18 4 6 10 6 17
-1 6 -6 8 -13 4 -17z m208 -1053 c3 -5 1 -12 -5 -16 -5 -3 -10 1 -10 9 0 18 6
21 15 7z"/>
<path d="M2008 1083 c7 -3 16 -2 19 1 4 3 -2 6 -13 5 -11 0 -14 -3 -6 -6z"/>
<path d="M2180 530 c0 -5 5 -10 11 -10 5 0 7 5 4 10 -3 6 -8 10 -11 10 -2 0
-4 -4 -4 -10z"/>
<path d="M1708 483 c7 -3 16 -2 19 1 4 3 -2 6 -13 5 -11 0 -14 -3 -6 -6z"/>
</g>
</svg>
